<svg id="Symbols" xmlns="http://www.w3.org/2000/svg" width="121.627" height="20.917" viewBox="0 0 121.627 20.917">
    <g id="Menu-_-Top" data-name="Menu-/-Top">
        <g id="domenebi-logo">
            <path id="Shape" d="M14,8.312a5.41,5.41,0,0,1,.174-1.437A5.491,5.491,0,0,1,14.7,5.612a6.532,6.532,0,0,1,.827-1.088A5.13,5.13,0,0,1,16.612,3.7a6.43,6.43,0,0,1,1.263-.522A5,5,0,0,1,19.312,3a5.575,5.575,0,0,1,2.09.392,5.2,5.2,0,0,1,2.83,2.83,5.6,5.6,0,0,1,.435,2.09,5.411,5.411,0,0,1-.174,1.437,6.425,6.425,0,0,1-.523,1.263,6.527,6.527,0,0,1-.827,1.088,5.132,5.132,0,0,1-1.088.827,6.425,6.425,0,0,1-1.263.522,5,5,0,0,1-1.437.174,5.407,5.407,0,0,1-1.437-.174,5.488,5.488,0,0,1-1.263-.522,6.532,6.532,0,0,1-1.088-.827,5.126,5.126,0,0,1-.827-1.088,4.685,4.685,0,0,1-.566-1.263A8.1,8.1,0,0,1,14,8.312Zm2.961,0a2.555,2.555,0,0,0,.174,1,3.152,3.152,0,0,0,.479.827,2.278,2.278,0,0,0,.74.523,2.374,2.374,0,0,0,.958.218,1.826,1.826,0,0,0,.958-.218,2.277,2.277,0,0,0,.74-.523,1.682,1.682,0,0,0,.435-.827,3.712,3.712,0,0,0,.174-1,2.7,2.7,0,0,0-.174-1,2.5,2.5,0,0,0-.435-.827,2.246,2.246,0,0,0-1.7-.784,2.217,2.217,0,0,0-.958.218,2.394,2.394,0,0,0-.74.566,2.811,2.811,0,0,0-.653,1.829Z" transform="translate(-1.504 -0.322)" fill="#033"/>
            <path id="Shape-2" data-name="Shape" d="M7.663,12.409a4.757,4.757,0,0,1-.479.435c-.174.131-.392.261-.61.392a1.925,1.925,0,0,1-.7.261,2.412,2.412,0,0,1-.784.087,4.673,4.673,0,0,1-2.046-.435,5.151,5.151,0,0,1-1.611-1.132A5.655,5.655,0,0,1,0,8.229,5.656,5.656,0,0,1,1.437,4.441,4.316,4.316,0,0,1,3.048,3.309a5.2,5.2,0,0,1,2.046-.392A4.823,4.823,0,0,1,5.921,3a2.3,2.3,0,0,1,.653.218,2.468,2.468,0,0,1,.566.348,4.768,4.768,0,0,1,.479.435V.61A.559.559,0,0,1,7.794.174.542.542,0,0,1,8.273,0H10.1a.393.393,0,0,1,.218.044c.087.044.131.087.218.131l.174.174a.552.552,0,0,1,.044.261V12.757c0,.435-.218.61-.653.61H8.49a.552.552,0,0,1-.261-.044L8.1,13.192c-.044-.044-.087-.131-.131-.174l-.131-.261ZM2.917,8.273a2.554,2.554,0,0,0,.174,1,3.153,3.153,0,0,0,.479.827,2.276,2.276,0,0,0,.74.522,2.372,2.372,0,0,0,.958.218,2.342,2.342,0,0,0,.958-.174,2.47,2.47,0,0,0,.784-.522,3.622,3.622,0,0,0,.566-.784A2.373,2.373,0,0,0,7.794,8.4V8.273a2.567,2.567,0,0,0-.7-1.829,2.323,2.323,0,0,0-.827-.566,2.583,2.583,0,0,0-1-.218,2.373,2.373,0,0,0-.958.218,2.393,2.393,0,0,0-.74.566,2.581,2.581,0,0,0-.479.827A2.554,2.554,0,0,0,2.917,8.273Z" fill="#033"/>
            <path id="Shape-3" data-name="Shape" d="M133.926,12.187a5.7,5.7,0,0,1-1.611,1.045,4.658,4.658,0,0,1-1.872.392,5.575,5.575,0,0,1-2.09-.392,5.708,5.708,0,0,1-1.741-1.132,5.9,5.9,0,0,1-1.176-1.7A4.918,4.918,0,0,1,125,8.268a4.9,4.9,0,0,1,.174-1.393,6.27,6.27,0,0,1,.479-1.263,6.235,6.235,0,0,1,.784-1.088,3.8,3.8,0,0,1,1.044-.827,4.32,4.32,0,0,1,1.219-.522A4.9,4.9,0,0,1,130.094,3a4.5,4.5,0,0,1,1.307.174,4.811,4.811,0,0,1,1.176.522,4.443,4.443,0,0,1,1,.784,5.691,5.691,0,0,1,.784,1,5.322,5.322,0,0,1,.522,1.132,4.008,4.008,0,0,1,.174,1.263v.7a.733.733,0,0,1-.13.435.844.844,0,0,1-.392.218,3.771,3.771,0,0,1-.784.044h-5.791a1.756,1.756,0,0,0,.348.871,2.338,2.338,0,0,0,.566.566,3.368,3.368,0,0,0,.7.3,4.35,4.35,0,0,0,.7.087,3.08,3.08,0,0,0,.61-.044,3.213,3.213,0,0,0,.61-.174c.174-.087.349-.131.523-.218a1.53,1.53,0,0,0,.392-.261c.087-.087.174-.131.218-.174a.323.323,0,0,1,.217-.044c.087,0,.131.044.218.087a1.139,1.139,0,0,1,.262.218l.871.958a.584.584,0,0,0,.13.174c0,.044.044.131.044.174a.465.465,0,0,1-.087.261A1.48,1.48,0,0,0,133.926,12.187Zm-3.875-6.749a1.39,1.39,0,0,0-.61.131A2.864,2.864,0,0,0,128.4,6.4a3.612,3.612,0,0,0-.348.522h4.136c-.131-.218-.218-.392-.348-.566a4.878,4.878,0,0,0-.436-.479,1.438,1.438,0,0,0-.566-.3A2.469,2.469,0,0,0,130.051,5.438Z" transform="translate(-13.43 -0.322)" fill="#033"/>
            <path id="Shape-4" data-name="Shape" d="M118.532,13.1c.044-.087.044-.218.087-.348v-.7a5.061,5.061,0,0,1-.479.479,4.607,4.607,0,0,1-.522.435,4.4,4.4,0,0,1-.653.3,2.618,2.618,0,0,1-.871.131,5.347,5.347,0,0,1-2.046-.392,5.148,5.148,0,0,1-1.611-1.045,4.135,4.135,0,0,1-1.045-1.611A5.191,5.191,0,0,1,111,8.312a5.654,5.654,0,0,1,1.437-3.788,4.7,4.7,0,0,1,1.611-1.132A5.194,5.194,0,0,1,116.094,3a2.9,2.9,0,0,1,.915.131,3.782,3.782,0,0,1,.74.3,3.282,3.282,0,0,1,.61.479,6.693,6.693,0,0,1,.522.566l.218-.74c.044-.087.044-.174.087-.261s.044-.131.087-.174a.61.61,0,0,1,.174-.131.555.555,0,0,1,.262-.044h1.219a.393.393,0,0,1,.218.044.587.587,0,0,1,.218.131c.044.044.13.131.13.174a.55.55,0,0,1,.044.261v8.273a5.381,5.381,0,0,1-.436,2.264,4.49,4.49,0,0,1-1.132,1.655,5.575,5.575,0,0,1-1.7,1.045,6.569,6.569,0,0,1-2.089.348,7.8,7.8,0,0,1-.958-.087,8.2,8.2,0,0,1-1-.218,3.691,3.691,0,0,1-.958-.392,5.49,5.49,0,0,1-.827-.566c-.087-.043-.131-.131-.218-.218a.627.627,0,0,1-.087-.3.705.705,0,0,1,.174-.435l.784-1.045a.778.778,0,0,1,.218-.174.327.327,0,0,1,.218-.044.7.7,0,0,1,.436.174,1.8,1.8,0,0,0,.479.3,2.446,2.446,0,0,0,.522.174,2.546,2.546,0,0,0,.566.087h.479a5.4,5.4,0,0,0,.784-.087,2.222,2.222,0,0,0,.74-.3,2.116,2.116,0,0,0,.61-.479A1,1,0,0,0,118.532,13.1Zm-4.658-4.789a2.544,2.544,0,0,0,.174,1,3.14,3.14,0,0,0,.478.827,2.282,2.282,0,0,0,.74.523,2.723,2.723,0,0,0,1.916,0,2.477,2.477,0,0,0,.784-.523,3.616,3.616,0,0,0,.566-.784,2.378,2.378,0,0,0,.218-.958V8.138a2.378,2.378,0,0,0-.218-.958,2.009,2.009,0,0,0-.566-.784,2.476,2.476,0,0,0-.784-.522,2.551,2.551,0,0,0-.958-.218,2.376,2.376,0,0,0-.959.218,1.879,1.879,0,0,0-.74.566,2.572,2.572,0,0,0-.478.827A4.733,4.733,0,0,0,113.874,8.312Z" transform="translate(-11.926 -0.322)" fill="#033"/>
            <path id="Shape-5" data-name="Shape" d="M106,12.348a.617.617,0,0,1,.087-.261.366.366,0,0,1,.261-.087h2.133a.616.616,0,0,1,.262.087.263.263,0,0,1,.131.261v1.959a.617.617,0,0,1-.087.261.311.311,0,0,1-.262.131h-2.177c-.261,0-.348-.131-.348-.392Z" transform="translate(-11.389 -1.289)" fill="#9c6"/>
            <path id="Shape-6" data-name="Shape" d="M100,4.61a.739.739,0,0,1,.13-.435A.506.506,0,0,1,100.566,4h1.873a.476.476,0,0,1,.218.044c.087.044.13.087.218.131a.438.438,0,0,1,.174.218.628.628,0,0,1,.087.261v8.969a.6.6,0,0,1-.174.479.793.793,0,0,1-.479.174H100.61a.551.551,0,0,1-.61-.61Z" transform="translate(-10.744 -0.43)" fill="#033"/>
            <path id="Shape-7" data-name="Shape" d="M88.874,12.757l-.131.261c-.044.087-.087.131-.087.174l-.131.131c-.044.044-.131.044-.261.044H86.653c-.435,0-.653-.218-.653-.61V.61a.552.552,0,0,1,.044-.261.6.6,0,0,1,.131-.174c.044-.044.131-.087.174-.131A.393.393,0,0,1,86.566,0h1.829a.6.6,0,0,1,.479.174.559.559,0,0,1,.174.435v3.4a2.283,2.283,0,0,1,.479-.435,2.468,2.468,0,0,1,.566-.348A3.831,3.831,0,0,1,90.746,3a4.822,4.822,0,0,1,.827-.087,5.352,5.352,0,0,1,2.046.392A5.151,5.151,0,0,1,95.23,4.441a5.656,5.656,0,0,1,1.437,3.788,5.655,5.655,0,0,1-1.437,3.788,4.316,4.316,0,0,1-1.611,1.132,5.21,5.21,0,0,1-2.046.435,4.8,4.8,0,0,1-.784-.087c-.261-.087-.479-.174-.7-.261-.218-.131-.435-.261-.61-.392A4.753,4.753,0,0,1,89,12.409Zm4.92-4.528a2.7,2.7,0,0,0-.174-1A2.582,2.582,0,0,0,93.14,6.4a2.246,2.246,0,0,0-1.7-.784,2.583,2.583,0,0,0-1,.218,3.489,3.489,0,0,0-.827.566,2.679,2.679,0,0,0-.523.827,2.583,2.583,0,0,0-.218,1V8.36a2.373,2.373,0,0,0,.218.958,2.016,2.016,0,0,0,.566.784,2.469,2.469,0,0,0,.784.522,2.342,2.342,0,0,0,.958.174,1.734,1.734,0,0,0,.958-.218,2.277,2.277,0,0,0,.74-.523,2.183,2.183,0,0,0,.479-.827A2.584,2.584,0,0,0,93.794,8.229Z" transform="translate(-9.24)" fill="#033"/>
            <path id="Shape-8" data-name="Shape" d="M81.926,12.187a5.7,5.7,0,0,1-1.611,1.045,4.658,4.658,0,0,1-1.872.392,5.574,5.574,0,0,1-2.09-.392A5.715,5.715,0,0,1,74.611,12.1a5.912,5.912,0,0,1-1.176-1.7A4.925,4.925,0,0,1,73,8.268a4.893,4.893,0,0,1,.174-1.393,6.3,6.3,0,0,1,.479-1.263,6.255,6.255,0,0,1,.784-1.088A3.812,3.812,0,0,1,75.482,3.7,4.3,4.3,0,0,1,76.7,3.174,4.892,4.892,0,0,1,78.094,3a4.494,4.494,0,0,1,1.306.174,4.817,4.817,0,0,1,1.176.522,4.433,4.433,0,0,1,1,.784,5.669,5.669,0,0,1,.784,1,5.346,5.346,0,0,1,.522,1.132,4.027,4.027,0,0,1,.174,1.263v.7a.735.735,0,0,1-.131.435.841.841,0,0,1-.392.218,3.771,3.771,0,0,1-.784.044H75.917a1.754,1.754,0,0,0,.348.871,2.328,2.328,0,0,0,.566.566,3.369,3.369,0,0,0,.7.3,4.34,4.34,0,0,0,.7.087,3.083,3.083,0,0,0,.61-.044,3.212,3.212,0,0,0,.61-.174c.174-.087.348-.131.522-.218a1.523,1.523,0,0,0,.392-.261c.087-.087.174-.131.218-.174a.326.326,0,0,1,.218-.044c.087,0,.131.044.218.087a1.156,1.156,0,0,1,.261.218l.871.958a.6.6,0,0,0,.131.174c0,.044.044.131.044.174a.467.467,0,0,1-.087.261A.671.671,0,0,0,81.926,12.187ZM78.007,5.438a1.391,1.391,0,0,0-.61.131,2.467,2.467,0,0,0-.566.348,2.494,2.494,0,0,0-.479.479A3.631,3.631,0,0,0,76,6.919H80.14a6.445,6.445,0,0,0-.348-.566,4.767,4.767,0,0,0-.435-.479,1.434,1.434,0,0,0-.566-.3A2.109,2.109,0,0,0,78.007,5.438Z" transform="translate(-7.843 -0.322)" fill="#033"/>
            <path id="Shape-9" data-name="Shape" d="M60.348,3.348c.087-.044.131-.087.218-.131.087,0,.131-.044.218-.044H62a.552.552,0,0,1,.261.044.6.6,0,0,1,.174.131.949.949,0,0,1,.131.218c.044.087.044.174.087.218l.174.7a2.046,2.046,0,0,1,.392-.522,2.536,2.536,0,0,1,.653-.479,4.45,4.45,0,0,1,.914-.348A4.855,4.855,0,0,1,65.965,3a4.011,4.011,0,0,1,1.655.348,3.321,3.321,0,0,1,1.219.958,3.818,3.818,0,0,1,.784,1.437,5.819,5.819,0,0,1,.261,1.742v5.4a.782.782,0,0,1-.131.479.58.58,0,0,1-.435.174H67.445a.7.7,0,0,1-.479-.131.578.578,0,0,1-.131-.435V7.659a1.228,1.228,0,0,0-.174-.653,1.8,1.8,0,0,0-.435-.566,1.657,1.657,0,0,0-.566-.392,1.747,1.747,0,0,0-.653-.131,1.709,1.709,0,0,0-.61.131,2.468,2.468,0,0,0-.566.348,4.608,4.608,0,0,0-.435.522,1.865,1.865,0,0,0-.218.7v5.268a.552.552,0,0,1-.044.261.435.435,0,0,1-.174.218c-.087.043-.131.087-.218.087a1.888,1.888,0,0,1-.218.044H60.7a.694.694,0,0,1-.523-.174A.774.774,0,0,1,60,12.884V3.827a.807.807,0,0,1,.087-.3.762.762,0,0,1,.174-.218Z" transform="translate(-6.446 -0.322)" fill="#033"/>
            <path id="Shape-10" data-name="Shape" d="M55.926,12.187a5.7,5.7,0,0,1-1.611,1.045,4.658,4.658,0,0,1-1.872.392,5.574,5.574,0,0,1-2.09-.392A5.715,5.715,0,0,1,48.611,12.1a5.912,5.912,0,0,1-1.176-1.7A4.925,4.925,0,0,1,47,8.268a4.893,4.893,0,0,1,.174-1.393,6.3,6.3,0,0,1,.479-1.263,6.255,6.255,0,0,1,.784-1.088A3.813,3.813,0,0,1,49.482,3.7,4.3,4.3,0,0,1,50.7,3.174,4.892,4.892,0,0,1,52.094,3a4.494,4.494,0,0,1,1.306.174,4.817,4.817,0,0,1,1.176.522,4.433,4.433,0,0,1,1,.784,5.669,5.669,0,0,1,.784,1,5.346,5.346,0,0,1,.523,1.132,4.027,4.027,0,0,1,.174,1.263v.7a.736.736,0,0,1-.131.435.842.842,0,0,1-.392.218,3.771,3.771,0,0,1-.784.044H49.917a1.753,1.753,0,0,0,.348.871,2.328,2.328,0,0,0,.566.566,3.369,3.369,0,0,0,.7.3,4.34,4.34,0,0,0,.7.087,3.083,3.083,0,0,0,.61-.044,3.212,3.212,0,0,0,.61-.174c.174-.087.348-.131.523-.218a1.523,1.523,0,0,0,.392-.261c.087-.087.174-.131.218-.174a.326.326,0,0,1,.218-.044c.087,0,.131.044.218.087a1.156,1.156,0,0,1,.261.218l.871.958a.6.6,0,0,0,.131.174c0,.044.044.131.044.174a.467.467,0,0,1-.087.261A2.122,2.122,0,0,0,55.926,12.187ZM52.051,5.438a1.39,1.39,0,0,0-.61.131A2.877,2.877,0,0,0,50.4,6.4a3.631,3.631,0,0,0-.348.522h4.136a6.444,6.444,0,0,0-.348-.566,4.756,4.756,0,0,0-.435-.479,1.434,1.434,0,0,0-.566-.3A2.466,2.466,0,0,0,52.051,5.438Z" transform="translate(-5.05 -0.322)" fill="#033"/>
            <path id="Shape-11" data-name="Shape" d="M28.261,3.392c.087-.044.131-.087.218-.131.087,0,.131-.044.218-.044h1.219a.552.552,0,0,1,.261.044.6.6,0,0,1,.174.131.952.952,0,0,1,.131.218c.044.087.044.174.087.218l.174.7A3.63,3.63,0,0,1,31.091,4a2.063,2.063,0,0,1,.566-.479,3.636,3.636,0,0,1,.827-.348,4.259,4.259,0,0,1,1.132-.131,5.435,5.435,0,0,1,.914.087,5.815,5.815,0,0,1,.784.3,3.287,3.287,0,0,1,.61.479,4.275,4.275,0,0,1,.523.653,1.743,1.743,0,0,1,.479-.522,5.438,5.438,0,0,1,.74-.522c.261-.131.61-.261.958-.392A4.387,4.387,0,0,1,39.712,3a3.663,3.663,0,0,1,1.611.348,3.032,3.032,0,0,1,1.132.958,4.418,4.418,0,0,1,.7,1.437,7.627,7.627,0,0,1,.218,1.742v5.442a.782.782,0,0,1-.131.479.58.58,0,0,1-.435.174H40.931a.7.7,0,0,1-.479-.131.578.578,0,0,1-.131-.435v-5.4a3.36,3.36,0,0,0-.087-.653,1.505,1.505,0,0,0-.3-.522,1.935,1.935,0,0,0-.479-.348,1.391,1.391,0,0,0-.61-.131,1.205,1.205,0,0,0-.566.131,1.236,1.236,0,0,0-.479.348,1.565,1.565,0,0,0-.348.522,1.747,1.747,0,0,0-.131.653v5.312a.782.782,0,0,1-.131.479.58.58,0,0,1-.435.174H34.879a.7.7,0,0,1-.479-.131.578.578,0,0,1-.131-.435v-5.4a3.36,3.36,0,0,0-.087-.653,1.505,1.505,0,0,0-.3-.522,1.365,1.365,0,0,0-.479-.348,1.391,1.391,0,0,0-.61-.131,1.341,1.341,0,0,0-.566.131,1.823,1.823,0,0,0-.523.348,2.717,2.717,0,0,0-.392.522,1.826,1.826,0,0,0-.174.653v5.355a.552.552,0,0,1-.044.261.434.434,0,0,1-.174.218c-.087.044-.131.087-.218.087a1.888,1.888,0,0,1-.218.044H28.7a.694.694,0,0,1-.523-.174A.774.774,0,0,1,28,12.971v-9.1a.807.807,0,0,1,.087-.3.762.762,0,0,1,.174-.218Z" transform="translate(-3.008 -0.322)" fill="#033"/>
            <path id="Shape-12" data-name="Shape" d="M4.174,20.543A.435.435,0,0,1,4,20.326a.32.32,0,0,1,.087-.261l1.219-1.916a.24.24,0,0,1,.218-.131.552.552,0,0,1,.261.044,11.624,11.624,0,0,0,3.091,1.393,12.529,12.529,0,0,0,3.4.435,12.529,12.529,0,0,0,3.4-.435,11.624,11.624,0,0,0,3.091-1.393c.087-.044.131-.087.218-.044a.24.24,0,0,1,.218.131l1.219,1.916a.618.618,0,0,1,.087.261.289.289,0,0,1-.174.218,14.837,14.837,0,0,1-3.788,1.7,15.24,15.24,0,0,1-8.534,0,15.124,15.124,0,0,1-3.831-1.7" transform="translate(-0.43 -1.934)" fill="#9c6"/>
        </g>
    </g>
</svg>